<svg xmlns="http://www.w3.org/2000/svg" width="512" height="512" viewBox="0 0 512 512">
  <rect width="512" height="512" rx="100" fill="#0a1628"/>
  <circle cx="325" cy="185" r="75" fill="#FBBF24" stroke="#F8AF18" stroke-width="8"/>
  <g fill="#F8AF18">
    <rect x="310" y="5" width="30" height="70" rx="15"/>
    <path d="M440 66a22 22 0 0 1 31 0 22 22 0 0 1 0 31l-42 42a22 22 0 0 1-31 0 22 22 0 0 1 0-31l42-42z"/>
    <rect x="448" y="170" width="70" height="30" rx="15" transform="rotate(90 483 185)"/>
    <path d="M440 305a22 22 0 0 1 0 31 22 22 0 0 1-31 0l-42-42a22 22 0 0 1 0-31 22 22 0 0 1 31 0l42 42z"/>
    <rect x="310" y="315" width="30" height="70" rx="15"/>
  </g>
  <g transform="translate(-20,20)">
    <path d="M185 265c-44 0-80 36-80 80s36 80 80 80c13.3 0 26-3.2 37.3-9a80 80 0 0 1 0-142c-11.3-5.8-24-9-37.3-9z" fill="#86C3DB"/>
    <path d="M185 256c-50 0-90 40-90 90s40 90 90 90c15.5 0 30.3-3.8 43.2-11a90 90 0 0 1 0-158c-12.9-7.2-27.7-11-43.2-11z" fill="none" stroke="#72B9D5" stroke-width="6"/>
  </g>
</svg>
