<svg xmlns="http://www.w3.org/2000/svg" width="48" height="48" viewBox="0 0 128 128">
  <circle cx="80" cy="48" r="17" fill="#FBBF24" stroke="#F8AF18" stroke-width="2"/>
  <g fill="#F8AF18">
    <rect x="77" y="2" width="6" height="15" rx="3"/>
    <path d="M107.7 16.06a4 4 0 0 1 5.66 0 4 4 0 0 1 0 5.66l-9.3 9.3a4 4 0 0 1-5.66 0 4 4 0 0 1 0-5.66l9.3-9.3z"/>
    <rect x="109" y="45" width="15" height="6" rx="3" transform="rotate(90 116.5 48)"/>
    <path d="M107.7 79.94a4 4 0 0 1 0 5.66 4 4 0 0 1-5.66 0l-9.3-9.3a4 4 0 0 1 0-5.66 4 4 0 0 1 5.66 0l9.3 9.3z"/>
    <rect x="77" y="79" width="6" height="15" rx="3"/>
  </g>

  <g transform="translate(-6,4)">
    <path d="M48 70c-11 0-20 9-20 20s9 20 20 20c3.3 0 6.5-.8 9.3-2.3a20 20 0 0 1 0-35.4c-2.8-1.5-6-2.3-9.3-2.3z" fill="#86C3DB"/>
    <path d="M48 68c-12.2 0-22 9.8-22 22s9.8 22 22 22c3.8 0 7.4-1 10.5-2.7a22 22 0 0 1 0-38.6c-3.1-1.7-6.7-2.7-10.5-2.7z" fill="none" stroke="#72B9D5" stroke-width="1.5"/>
  </g>
</svg>
